<?xml version="1.0" standalone="no"?><!DOCTYPE svg PUBLIC "-//W3C//DTD SVG 1.1//EN" "http://www.w3.org/Graphics/SVG/1.1/DTD/svg11.dtd"><svg t="1770098582144" class="icon" viewBox="0 0 1033 1024" version="1.1" xmlns="http://www.w3.org/2000/svg" p-id="22816" width="258.25" height="256" xmlns:xlink="http://www.w3.org/1999/xlink"><path d="M516.800218 1023.994392a511.850911 511.850911 0 1 1 516.532028-511.82653A514.215851 514.215851 0 0 1 516.800218 1023.994392z m0-959.702173a447.875643 447.875643 0 1 0 451.97162 447.875643A449.923631 449.923631 0 0 0 516.800218 64.3166z m96.889374 639.728307a32.182681 32.182681 0 0 1-32.182681-32.182681V352.132167a32.182681 32.182681 0 0 1 64.365362 0v319.730059a32.182681 32.182681 0 0 1-32.182681 32.18268z m-193.82751 0a32.182681 32.182681 0 0 1-32.182681-32.182681V352.132167a32.182681 32.182681 0 1 1 64.365362 0v319.730059a32.182681 32.182681 0 0 1-32.182681 32.18268z" p-id="22817" fill="#707070"></path></svg>