<svg t="1770100124851" class="icon" viewBox="0 0 1024 1024" version="1.1" xmlns="http://www.w3.org/2000/svg" p-id="48598" width="256" height="256"><path d="M814.08 869.546667H209.92a149.76 149.76 0 0 1-149.333333-149.333334V304.213333a149.333333 149.333333 0 0 1 149.333333-149.333333h604.16a149.333333 149.333333 0 0 1 149.333333 149.333333v416a149.76 149.76 0 0 1-149.333333 149.333334zM209.92 197.546667a106.666667 106.666667 0 0 0-106.666667 106.666666v416a107.093333 107.093333 0 0 0 106.666667 106.666667h604.16a107.093333 107.093333 0 0 0 106.666667-106.666667V304.213333a106.666667 106.666667 0 0 0-106.666667-106.666666z" p-id="48599" fill="#515151"></path><path d="M238.933333 352.853333a33.706667 33.706667 0 1 1 33.706667-33.706666 33.706667 33.706667 0 0 1-33.706667 33.706666z m0-42.666666a8.96 8.96 0 0 0-8.96 8.96c0 9.813333 18.346667 9.813333 18.346667 0a8.96 8.96 0 0 0-9.386667-8.96zM404.48 352.853333a33.706667 33.706667 0 1 1 33.706667-33.706666 33.706667 33.706667 0 0 1-33.706667 33.706666z m0-42.666666a8.96 8.96 0 0 0-8.96 8.96c0 9.813333 17.92 9.813333 17.92 0a8.96 8.96 0 0 0-8.96-8.96zM569.6 352.853333a33.706667 33.706667 0 1 1 33.706667-33.706666 33.706667 33.706667 0 0 1-33.706667 33.706666z m0-42.666666a8.96 8.96 0 0 0-8.96 8.96c0 9.813333 18.346667 9.813333 18.346667 0a8.96 8.96 0 0 0-9.386667-8.96z" p-id="48600" fill="#515151"></path></svg>