<?xml version="1.0" standalone="no"?><!DOCTYPE svg PUBLIC "-//W3C//DTD SVG 1.1//EN" "http://www.w3.org/Graphics/SVG/1.1/DTD/svg11.dtd"><svg t="1770099767883" class="icon" viewBox="0 0 1024 1024" version="1.1" xmlns="http://www.w3.org/2000/svg" p-id="35649" width="256" height="256" xmlns:xlink="http://www.w3.org/1999/xlink"><path d="M647.509333 60.672H375.168A162.688 162.688 0 0 0 212.650667 223.146667v573.909333c0 89.6 72.917333 162.517333 162.517333 162.517333h272.341333c89.6 0 162.474667-72.917333 162.474667-162.517333V223.189333c0-89.6-72.874667-162.56-162.474667-162.56z m108.330667 736.426667c0 59.733333-48.64 108.288-108.373333 108.288H375.210667c-59.733333 0-108.373333-48.597333-108.373334-108.330667V223.189333c0-59.733333 48.64-108.373333 108.373334-108.373333h56.149333a27.050667 27.050667 0 0 0 27.050667 26.837333h105.898666c14.848 0 26.88-11.989333 27.050667-26.837333h56.192c59.733333 0 108.330667 48.64 108.330667 108.373333v573.866667z" fill="#707070" fill-opacity=".9" p-id="35650"></path><path d="M564.266667 819.328h-105.898667a27.093333 27.093333 0 0 0 0 54.186667h105.898667a27.093333 27.093333 0 1 0 0-54.186667z" fill="#707070" fill-opacity=".9" p-id="35651"></path></svg>