<svg t="1770551590302" class="icon" viewBox="0 0 1024 1024" version="1.1" xmlns="http://www.w3.org/2000/svg" p-id="9511" width="256" height="256"><path d="M490.688 160a32 32 0 0 0 0 64h42.688a32 32 0 0 0 0-64h-42.688z" fill="#707070" p-id="9512"></path><path d="M510.4 53.312h3.2c28.608 0 52.48 0 71.744 1.92 20.224 2.112 38.976 6.592 55.872 17.92 12.8 8.512 23.808 19.52 32.32 32.32 11.328 16.896 15.808 35.648 17.856 55.872 1.92 19.264 1.92 43.136 1.92 71.68v69.12c10.752 4.8 20.736 11.264 29.632 20.224 19.456 19.456 27.392 43.584 30.976 70.4 3.456 25.408 3.456 57.344 3.456 95.68v240.96c0 35.776 0 58.496-3.904 78.08a202.688 202.688 0 0 1-159.232 159.296c-19.648 3.84-42.432 3.84-78.144 3.84h-8.128c-35.776 0-58.56 0-78.144-3.84a202.688 202.688 0 0 1-159.232-159.232c-3.904-19.648-3.904-42.368-3.904-78.144V488.448c0-38.336 0-70.272 3.392-95.68 3.584-26.816 11.52-50.944 30.976-70.4 8.96-8.96 18.88-15.424 29.632-20.224v-69.12c0-28.544 0-52.416 1.92-71.68 2.112-20.224 6.528-38.976 17.856-55.872 8.576-12.8 19.52-23.808 32.384-32.384 16.896-11.264 35.648-15.744 55.808-17.792 19.328-1.92 43.136-1.92 71.68-1.92z m118.976 181.376c0-30.656-0.064-51.2-1.664-66.88-1.536-15.168-4.288-22.144-7.36-26.752a53.312 53.312 0 0 0-14.72-14.72c-4.608-3.136-11.584-5.824-26.752-7.36C563.2 117.376 542.656 117.312 512 117.312c-30.592 0-51.2 0-66.88 1.664-15.104 1.536-22.144 4.224-26.752 7.36a53.312 53.312 0 0 0-14.72 14.72c-3.072 4.608-5.76 11.584-7.36 26.752-1.6 15.68-1.6 36.224-1.6 66.88v54.592c20.8-1.28 44.992-1.28 72.448-1.28h89.792c27.392 0 51.584 0 72.448 1.28v-54.592zM379.968 354.816c-19.712 2.688-28.16 7.232-33.664 12.8-5.568 5.568-10.112 14.016-12.8 33.664-2.752 20.608-2.816 48.256-2.816 89.408v234.624c0 41.216 0.128 57.152 2.624 69.76 10.944 55.04 53.952 97.984 108.992 108.928 12.608 2.56 28.544 2.688 69.76 2.688 41.152 0 57.024-0.192 69.696-2.688a138.688 138.688 0 0 0 108.928-108.928c2.56-12.608 2.688-28.544 2.688-69.76V490.688c0-41.152-0.128-68.8-2.88-89.408-2.624-19.648-7.232-28.096-12.8-33.664-5.504-5.568-13.952-10.112-33.664-12.8-20.608-2.752-48.192-2.816-89.344-2.816H469.376c-41.152 0-68.8 0.064-89.408 2.816z" fill="#707070" p-id="9513"></path></svg>